<?xml version="1.0" encoding="utf-8"?>
<!-- Generator: Adobe Illustrator 16.0.0, SVG Export Plug-In . SVG Version: 6.00 Build 0)  -->
<!DOCTYPE svg PUBLIC "-//W3C//DTD SVG 1.1//EN" "http://www.w3.org/Graphics/SVG/1.1/DTD/svg11.dtd">
<svg version="1.1" id="Layer_1" xmlns="http://www.w3.org/2000/svg" xmlns:xlink="http://www.w3.org/1999/xlink" x="0px" y="0px"
	 width="1417.32px" height="1417.32px" viewBox="0 0 1417.32 1417.32" enable-background="new 0 0 1417.32 1417.32"
	 xml:space="preserve">
<path fill="none" stroke="#000000" stroke-width="10" stroke-miterlimit="10" d="M1251.673,711.658
	c0,363.271-238.069,686.396-531.75,686.396c-293.674,0-531.746-323.126-531.746-686.396c0-363.272,238.072-684.711,531.746-684.711
	C1013.604,26.947,1251.673,348.386,1251.673,711.658z"/>
<path fill="none" stroke="#000000" stroke-width="10" stroke-miterlimit="10" d="M1211.425,711.659
	c0,335.774-220.051,636.61-491.502,636.61c-271.445,0-491.499-300.836-491.499-636.61c0-335.778,220.054-634.925,491.499-634.925
	C991.374,76.734,1211.425,375.881,1211.425,711.659z"/>
<g>
	<path d="M861.488,570.261c0,130.386-72.128,260.075-221.929,260.075c-143.56,0-214.994-129.688-214.994-260.075
		c0-131.077,71.434-261.46,214.994-261.46C789.36,308.801,861.488,439.184,861.488,570.261z M471.032,570.261
		c0,121.369,56.176,242.737,168.527,242.737c117.899,0,174.078-121.368,174.078-242.737c0-121.368-56.179-243.429-174.078-243.429
		C527.208,326.832,471.032,448.894,471.032,570.261z"/>
</g>
<g>
	<path d="M964.433,595.716v22.113c-66.335,0-120.361,15.036-120.361,57.493v392.716c0,121.177-57.496,177.785-125.6,177.785
		c-69.877,0-122.947-15.038-122.947-66.337c0-24.767,12.384-48.648,39.803-48.648c30.073,0,44.226,17.692,44.226,46.879
		c0,23.879,9.729,44.223,39.801,44.223c49.532,0,69.876-55.721,69.876-132.673V675.322c0-42.458-53.144-57.493-127.44-57.493
		v-22.113H964.433z"/>
</g>
</svg>
